<svg viewBox="0 0 24 24" fill="none" xmlns="http://www.w3.org/2000/svg"><path d="M15.473 0c.392.008.762.169 1.037.455l2.686 2.763c.577.6.577 1.536.003 2.133L12.735 12l6.461 6.645c.578.6.578 1.536.003 2.133l-2.723 2.8a1.481 1.481 0 0 1-2.108-.034L4.182 13.068a1.532 1.532 0 0 1-.002-2.133L14.398.426A1.488 1.488 0 0 1 15.473 0Zm2.648 19.735c.012-.012.011-.033-.003-.047l-6.967-7.165a.747.747 0 0 1 0-1.046l6.97-7.168c.011-.012.011-.033-.003-.047l-2.679-2.756L5.257 11.978c-.012.012-.011.032.003.047l10.18 10.47 2.681-2.76Z" fill="currentColor"/></svg>
