<svg viewBox="0 0 24 24" fill="none" xmlns="http://www.w3.org/2000/svg"><path d="M0 8.527c.008-.392.169-.762.455-1.037l2.763-2.686a1.533 1.533 0 0 1 2.133-.003L12 11.265l6.645-6.461a1.532 1.532 0 0 1 2.133-.003l2.8 2.723a1.481 1.481 0 0 1-.034 2.108L13.068 19.818c-.6.577-1.536.578-2.133.002L.426 9.602A1.488 1.488 0 0 1 0 8.561v-.034Zm19.735-2.648c-.012-.012-.033-.011-.047.003l-7.165 6.967a.747.747 0 0 1-1.046 0l-7.168-6.97c-.012-.011-.033-.011-.047.003L1.506 8.561l10.472 10.182c.012.012.032.011.047-.003l10.47-10.18-2.76-2.681Z" fill="currentColor"/></svg>
