<svg viewBox="0 0 24 24" fill="none" xmlns="http://www.w3.org/2000/svg"><path fill="currentColor" d="M11.843 6c-1.654 0-3-1.346-3-3s1.346-3 3-3 3 1.346 3 3-1.346 3-3 3Zm0-4.5c-.827 0-1.5.673-1.5 1.5s.673 1.5 1.5 1.5 1.5-.673 1.5-1.5-.673-1.5-1.5-1.5ZM3.149 13.814a1.25 1.25 0 0 1-.396-.065l-1.897-.632a1.24 1.24 0 0 1-.723-.627 1.241 1.241 0 0 1-.068-.954l2.264-6.79c.105-.317.328-.574.627-.723a1.241 1.241 0 0 1 .953-.068l1.897.632c.317.106.574.328.723.627.149.299.173.638.068.954l-2.264 6.791a1.24 1.24 0 0 1-.627.723 1.26 1.26 0 0 1-.557.132Zm-.159-1.567 2.105-6.316-1.423-.474-2.105 6.316 1.423.474ZM20.843 6.75a.743.743 0 0 1-.53-.22.743.743 0 0 1-.22-.53c0-.2.078-.389.22-.53l1.339-1.339.706-3.527a.751.751 0 0 1 1.36-.27.743.743 0 0 1 .111.563l-.75 3.75a.752.752 0 0 1-.205.384l-1.5 1.5a.75.75 0 0 1-.531.219ZM18.593 17.25a.75.75 0 0 1-.75-.75V15a.75.75 0 0 1 1.5 0v1.5a.75.75 0 0 1-.75.75Z"/><path fill="currentColor" d="M8.837 24.034c-.119 0-.242-.011-.375-.034H3.593a.75.75 0 0 1 0-1.5h3.113a2.233 2.233 0 0 1-.065-1.208l.545-2.724a.758.758 0 0 0-.067-.486l-1.038-2.076a2.233 2.233 0 0 1-.121-1.719l2.25-6.749A2.238 2.238 0 0 1 10.346 6c.35 0 .688.08 1.003.237l3.867 1.934a.747.747 0 0 0 .335.079h3.042a2.252 2.252 0 0 1 2.25 2.25 2.252 2.252 0 0 1-2.25 2.25h-3.045c-.808 0-1.617-.19-2.341-.55l-1.55-.774-.576 1.727 1.025.146a5.264 5.264 0 0 1 3.951 2.849l.8 1.594.023.047c.537 1.095.075 2.445-1.039 2.991a2.273 2.273 0 0 1-.511.177l-.773 1.543h8.536a.75.75 0 0 1 0 1.5H9.214a2.164 2.164 0 0 1-.377.034ZM12.88 22.5l.886-1.769a2.227 2.227 0 0 1-.936-.979l-.797-1.588a.752.752 0 0 0-.378-.356 5.217 5.217 0 0 1-.056 1.639l-.549 2.744a2.21 2.21 0 0 1-.08.309h1.91Zm-3.834 0a.744.744 0 0 0 .523-.552l.558-2.79c.13-.672.072-1.37-.168-2.015a.75.75 0 0 1 .812-1.003l.91.131a2.25 2.25 0 0 1 1.694 1.221l.8 1.593c.117.238.35.395.615.418a.87.87 0 0 1 .141.004.75.75 0 0 0 .595-1.074l-.809-1.612a3.761 3.761 0 0 0-2.823-2.036l-1.913-.272a.75.75 0 0 1-.606-.98l1.134-3.4a.753.753 0 0 1 .711-.513c.116 0 .232.027.335.079l2.321 1.16a3.782 3.782 0 0 0 1.672.392h3.045a.75.75 0 0 0 0-1.5h-3.042c-.347 0-.694-.082-1.005-.237L10.678 7.58a.736.736 0 0 0-.573-.04.742.742 0 0 0-.473.473l-2.25 6.75a.746.746 0 0 0 .04.573l1.038 2.076c.223.445.292.96.196 1.448l-.549 2.743a.75.75 0 0 0 .512.897h.427Z"/></svg>
