<svg viewBox="0 0 24 24" fill="none" xmlns="http://www.w3.org/2000/svg"><path fill="currentColor" d="M19.499 12.454a1.119 1.119 0 0 1-.937-.505C17.232 9.946 15 6.313 15 4.5 15 2.019 17.019 0 19.5 0S24 2.019 24 4.5c0 1.806-2.232 5.443-3.562 7.45a1.118 1.118 0 0 1-.939.504ZM19.5 1.5c-1.654 0-3 1.346-3 3 0 .938 1.167 3.32 3 6.145 1.833-2.829 3-5.211 3-6.145 0-1.654-1.346-3-3-3Z"/><path fill="currentColor" d="M19.5 5.625a.817.817 0 0 1-.131-.011 1.125 1.125 0 0 1-.982-.983.698.698 0 0 1 0-.26c.06-.513.47-.923.982-.983a.717.717 0 0 1 .262 0c.513.06.922.47.983.983a.796.796 0 0 1 0 .26c-.061.513-.47.923-.983.983a.817.817 0 0 1-.131.011ZM5.25 13.875a.796.796 0 0 1-.13-.011 1.126 1.126 0 0 1-.983-.982.717.717 0 0 1 0-.262c.06-.513.47-.922.982-.982a.717.717 0 0 1 .262 0c.513.061.922.47.982.982a.717.717 0 0 1 0 .262c-.06.513-.47.922-.983.982a.796.796 0 0 1-.13.011Z"/><path fill="currentColor" d="M5.249 20.926a1.489 1.489 0 0 1-1.182-.577C2.212 17.975 0 14.73 0 12.75A5.256 5.256 0 0 1 5.25 7.5a5.256 5.256 0 0 1 5.25 5.25c0 1.983-2.212 5.227-4.068 7.6a1.491 1.491 0 0 1-1.183.576ZM5.25 9a3.754 3.754 0 0 0-3.75 3.75c0 1.159 1.437 3.717 3.75 6.676C7.563 16.469 9 13.911 9 12.75A3.754 3.754 0 0 0 5.25 9ZM6.75 24a.75.75 0 0 1-.408-1.38l12.75-8.25a.753.753 0 0 1 1.037.223.75.75 0 0 1-.223 1.037l-12.75 8.25a.75.75 0 0 1-.406.12Z"/></svg>
