<svg viewBox="0 0 24 24" fill="none" xmlns="http://www.w3.org/2000/svg"><path d="M16.478 24.004a.752.752 0 0 1-.624-.333A12.747 12.747 0 0 0 5.237 18c-1.426 0-2.834.238-4.186.708a.752.752 0 0 1-.955-.462.752.752 0 0 1 .462-.955 14.21 14.21 0 0 1 5.441-.77V13.5H2.25a1.507 1.507 0 0 1-.743-.198 1.493 1.493 0 0 1-.703-.907 1.492 1.492 0 0 1 .183-1.199l2.07-2.946H2.25a.751.751 0 0 1-.642-1.138L5.484.696a1.496 1.496 0 0 1 1.56-.667c.393.079.732.306.954.639l3.894 6.445c.14.231.144.521.012.756a.753.753 0 0 1-.654.381h-.806l2.071 2.947a1.506 1.506 0 0 1 .235.803c0 .827-.673 1.5-1.5 1.5H7.5v3.184c1.142.183 2.257.505 3.323.958a16.43 16.43 0 0 1 7.178-3.712v-2.68h-3.136c-.239 0-.473-.062-.679-.181a1.354 1.354 0 0 1-.637-.826 1.356 1.356 0 0 1 .175-1.1l1.723-2.393h-.377a.75.75 0 0 1-.633-1.154L17.609.619a1.37 1.37 0 0 1 1.409-.594c.358.071.666.277.868.58l3.18 4.991a.75.75 0 0 1-.632 1.153h-.378l1.722 2.394a1.377 1.377 0 0 1 .221.747 1.355 1.355 0 0 1-.401.963 1.355 1.355 0 0 1-.962.397h-3.135v2.404a16.539 16.539 0 0 1 3.82-.081c.199.019.38.114.507.269a.742.742 0 0 1 .168.549.756.756 0 0 1-.82.675 14.552 14.552 0 0 0-1.363-.067h-.082a15.062 15.062 0 0 0-2.873.275 14.891 14.891 0 0 0-6.572 3.088 14.301 14.301 0 0 1 4.815 4.473.75.75 0 0 1-.623 1.169ZM11.246 12 8.387 7.931a.746.746 0 0 1-.052-.777A.746.746 0 0 1 9 6.75h.921L6.75 1.501 3.579 6.75H4.5a.75.75 0 0 1 .614 1.181L2.255 12h8.991Zm5.664-6.75a.75.75 0 0 1 .609 1.188L15.135 9.75l7.23-.001-2.382-3.312a.748.748 0 0 1 .608-1.188h.474l-2.314-3.633-2.315 3.634h.474Z" fill="currentColor"/></svg>
