<svg viewBox="0 0 24 24" fill="none" xmlns="http://www.w3.org/2000/svg"><path d="M1.5 24C.673 24 0 23.327 0 22.5v-3c0-.827.673-1.5 1.5-1.5h3c.827 0 1.5.673 1.5 1.5v3c0 .827-.673 1.5-1.5 1.5h-3Zm0-1.5h3v-3h-3v3ZM10.5 24c-.827 0-1.5-.673-1.5-1.5v-3c0-.827.673-1.5 1.5-1.5h3c.827 0 1.5.673 1.5 1.5v3c0 .827-.673 1.5-1.5 1.5h-3Zm0-1.5h3v-3h-3v3ZM19.5 24c-.827 0-1.5-.673-1.5-1.5v-3c0-.827.673-1.5 1.5-1.5h3c.827 0 1.5.673 1.5 1.5v3c0 .827-.673 1.5-1.5 1.5h-3Zm0-1.5h3v-3h-3v3ZM1.5 15C.673 15 0 14.327 0 13.5v-3C0 9.673.673 9 1.5 9h3c.827 0 1.5.673 1.5 1.5v3c0 .827-.673 1.5-1.5 1.5h-3Zm0-1.5h3v-3h-3v3ZM10.5 15c-.827 0-1.5-.673-1.5-1.5v-3c0-.827.673-1.5 1.5-1.5h3c.827 0 1.5.673 1.5 1.5v3c0 .827-.673 1.5-1.5 1.5h-3Zm0-1.5h3v-3h-3v3ZM19.5 15c-.827 0-1.5-.673-1.5-1.5v-3c0-.827.673-1.5 1.5-1.5h3c.827 0 1.5.673 1.5 1.5v3c0 .827-.673 1.5-1.5 1.5h-3Zm0-1.5h3v-3h-3v3ZM1.5 6C.673 6 0 5.327 0 4.5v-3C0 .673.673 0 1.5 0h3C5.327 0 6 .673 6 1.5v3C6 5.327 5.327 6 4.5 6h-3Zm0-1.5h3v-3h-3v3ZM10.5 6C9.673 6 9 5.327 9 4.5v-3C9 .673 9.673 0 10.5 0h3c.827 0 1.5.673 1.5 1.5v3c0 .827-.673 1.5-1.5 1.5h-3Zm0-1.5h3v-3h-3v3ZM19.5 6c-.827 0-1.5-.673-1.5-1.5v-3c0-.827.673-1.5 1.5-1.5h3c.827 0 1.5.673 1.5 1.5v3c0 .827-.673 1.5-1.5 1.5h-3Zm0-1.5h3v-3h-3v3Z" fill="currentColor"/></svg>
