<svg viewBox="0 0 24 24" fill="none" xmlns="http://www.w3.org/2000/svg"><path d="M12 21a.748.748 0 0 1-.621-.33 25.212 25.212 0 0 0-2.294-2.906 63.55 63.55 0 0 0-.83-.865C6.143 14.722 3.75 12.256 3.75 8.25 3.75 3.701 7.451 0 12 0c4.549 0 8.25 3.701 8.25 8.25 0 4.002-2.39 6.467-4.499 8.641-.291.3-.568.586-.835.871a25.429 25.429 0 0 0-2.296 2.908.745.745 0 0 1-.62.33Zm0-19.5a6.758 6.758 0 0 0-6.75 6.75c0 3.398 2.075 5.536 4.081 7.604.291.3.578.596.854.89.642.7 1.251 1.44 1.816 2.206a26.898 26.898 0 0 1 1.815-2.207c.278-.297.562-.59.85-.887 2.012-2.075 4.084-4.212 4.084-7.606A6.758 6.758 0 0 0 12 1.5ZM19.5 24a.74.74 0 0 1-.279-.054l-3.75-1.5a.745.745 0 0 1-.411-.401.748.748 0 0 1 .968-.991l3.75 1.5a.745.745 0 0 1 .411.401.742.742 0 0 1 .007.574.745.745 0 0 1-.696.471ZM6.375 18.75a.74.74 0 0 1-.279-.054l-1.875-.75a.747.747 0 0 1-.418-.975.747.747 0 0 1 .976-.417l1.875.75a.747.747 0 0 1 .418.975.747.747 0 0 1-.697.471ZM4.5 24a.747.747 0 0 1-.697-.472.747.747 0 0 1 .418-.975l3.75-1.5a.744.744 0 0 1 .975.419.748.748 0 0 1-.418.974l-3.75 1.5A.732.732 0 0 1 4.5 24ZM17.625 18.75a.744.744 0 0 1-.696-.472.747.747 0 0 1 .418-.975l1.875-.75a.745.745 0 0 1 .974.418.747.747 0 0 1-.418.975l-1.875.75a.732.732 0 0 1-.278.054Z" fill="currentColor"/><path d="M12 12a3.754 3.754 0 0 1-3.75-3.75A3.754 3.754 0 0 1 12 4.5a3.754 3.754 0 0 1 3.75 3.75A3.754 3.754 0 0 1 12 12Zm0-6a2.252 2.252 0 0 0-2.25 2.25A2.252 2.252 0 0 0 12 10.5a2.252 2.252 0 0 0 2.25-2.25A2.252 2.252 0 0 0 12 6Z" fill="currentColor"/></svg>
