<svg viewBox="0 0 24 24" fill="none" xmlns="http://www.w3.org/2000/svg"><path d="M.75 24a.75.75 0 0 1 0-1.5h2.321l1.35-13.502A1.502 1.502 0 0 1 3 7.5v-6C3 .673 3.673 0 4.5 0h2.25c.827 0 1.5.673 1.5 1.5v.75a.75.75 0 0 0 1.5 0V1.5c0-.827.673-1.5 1.5-1.5h1.5c.827 0 1.5.673 1.5 1.5v.75a.75.75 0 0 0 1.5 0V1.5c0-.827.673-1.5 1.5-1.5h2.25c.827 0 1.5.673 1.5 1.5v6c0 .801-.631 1.457-1.422 1.498l1.35 13.502h2.321a.75.75 0 0 1 .001 1.5H.75Zm18.671-1.5L18.071 9H5.929l-1.35 13.5H9V18c0-1.654 1.346-3 3-3s3 1.346 3 3v4.5h4.421Zm-5.921 0V18c0-.827-.673-1.5-1.5-1.5s-1.5.673-1.5 1.5v4.5h3Zm-9-15h15v-6h-2.25v.75A2.252 2.252 0 0 1 15 4.5a2.252 2.252 0 0 1-2.25-2.25V1.5h-1.5v.75A2.252 2.252 0 0 1 9 4.5a2.252 2.252 0 0 1-2.25-2.25V1.5H4.5v6Z" fill="currentColor"/></svg>
