<svg viewBox="0 0 24 24" fill="none" xmlns="http://www.w3.org/2000/svg"><path d="M12.217 23.75a.75.75 0 0 1-.75-.75v-2.25H5.5c-.335 0-.663-.113-.925-.318a1.49 1.49 0 0 1-.564-.998c-.049-.398.06-.79.306-1.105L7.685 14a1.516 1.516 0 0 1-.867-.299 1.487 1.487 0 0 1-.584-.988 1.485 1.485 0 0 1 .285-1.112l2.7-3.6h-.1a1.481 1.481 0 0 1-.835-.252 1.493 1.493 0 0 1-.639-.954c-.079-.393 0-.793.223-1.126l3.1-4.648a1.492 1.492 0 0 1 1.247-.667c.504 0 .971.249 1.25.667l3.1 4.649a1.502 1.502 0 0 1-1.248 2.332h-.1l2.7 3.6a1.503 1.503 0 0 1-1.167 2.4l3.367 4.33a1.503 1.503 0 0 1-.125 1.984 1.491 1.491 0 0 1-1.057.437h-5.968V23a.75.75 0 0 1-.75.75ZM9.218 12.5c.284 0 .549.165.674.42a.754.754 0 0 1-.082.79L5.5 19.25l13.435-.001-4.31-5.539a.754.754 0 0 1-.082-.79.756.756 0 0 1 .674-.42h1.5l-3.6-4.8a.748.748 0 0 1 .6-1.2h1.6l-3.1-4.648-3.101 4.649h1.602c.286 0 .543.159.671.414a.746.746 0 0 1-.071.786l-3.6 4.8h1.5V12.5Z" fill="currentColor"/></svg>
