<?xml version="1.0" standalone="no"?>
<!DOCTYPE svg PUBLIC "-//W3C//DTD SVG 20010904//EN"
 "http://www.w3.org/TR/2001/REC-SVG-20010904/DTD/svg10.dtd">
<svg version="1.0" xmlns="http://www.w3.org/2000/svg"
 width="1024.000000pt" height="1024.000000pt" viewBox="0 0 1024.000000 1024.000000"
 preserveAspectRatio="xMidYMid meet">
<metadata>
Created by potrace 1.14, written by Peter Selinger 2001-2017
</metadata>
<g transform="translate(0.000000,1024.000000) scale(0.100000,-0.100000)"
fill="#000000" stroke="none">
<path d="M5810 9594 c-80 -7 -428 -34 -775 -59 -346 -25 -649 -48 -672 -51
l-43 -5 0 -145 0 -144 820 0 820 0 4 23 c3 12 12 90 21 172 9 83 19 167 22
188 7 44 25 41 -197 21z"/>
<path d="M1335 8490 l-450 -450 450 -450 450 -450 2367 0 2368 0 0 900 0 900
-2368 0 -2367 0 -450 -450z"/>
<path d="M4324 6877 c-2 -7 -3 -78 -2 -157 l3 -145 800 0 800 0 3 158 3 157
-801 0 c-646 0 -802 -2 -806 -13z"/>
<path d="M3710 5425 l0 -905 1120 0 1120 0 312 250 c172 137 313 248 314 247
2 -1 -31 -109 -72 -241 -41 -131 -74 -242 -74 -247 0 -5 404 -9 1003 -9 l1002
0 453 453 452 452 -453 453 -452 452 -2363 0 -2362 0 0 -905z"/>
<path d="M5981 4213 c-431 -410 -771 -1065 -1014 -1956 l-54 -199 -71 100
c-232 325 -554 654 -876 895 -375 281 -782 497 -1261 670 -230 83 -224 85
-106 -39 499 -523 829 -1133 1015 -1879 31 -124 86 -398 86 -427 0 -7 -65 56
-144 139 -507 527 -1045 860 -1636 1012 -110 28 -114 29 -86 8 231 -173 378
-338 528 -589 189 -319 354 -760 459 -1226 l23 -102 2425 2 2426 3 8 55 c22
152 82 448 127 626 137 548 320 940 555 1193 l50 54 -32 -6 c-17 -3 -85 -27
-150 -53 -501 -197 -929 -545 -1303 -1063 -52 -71 -96 -129 -97 -127 -7 6 52
371 88 549 140 692 386 1226 733 1585 49 50 84 92 78 92 -21 0 -220 -73 -322
-119 -400 -179 -847 -520 -1232 -940 -79 -85 -160 -173 -180 -195 l-37 -41 -1
45 c0 25 -5 195 -10 378 -20 653 19 1217 106 1561 13 52 22 96 20 98 -1 2 -54
-45 -115 -104z"/>
<path d="M4331 3678 l0 -603 60 -50 c33 -27 141 -132 239 -232 l178 -182 52
152 c203 593 467 1089 755 1422 34 39 64 76 69 83 6 9 -132 12 -673 12 l-681
0 1 -602z"/>
</g>
</svg>
