<svg width="353" height="52" viewBox="0 0 353 52" fill="none" xmlns="http://www.w3.org/2000/svg">
<path d="M59.59 18.46H75.49C75.67 18.88 75.73 19.42 75.73 19.96C75.73 20.56 75.61 21.16 75.49 21.4L72.37 22.06L79.45 40.72L86.65 21.94L83.05 21.28C82.87 20.86 82.75 20.44 82.75 19.96C82.75 19.48 82.87 18.94 83.05 18.46H94.69C94.87 18.88 94.93 19.42 94.93 19.9C94.93 20.5 94.81 21.04 94.69 21.28L91.63 21.94L79.63 50.56H74.59L62.47 22.06L59.59 21.4C59.35 20.92 59.29 20.44 59.29 20.02C59.29 19.42 59.41 18.88 59.59 18.46Z" fill="#272E00"/>
<path d="M104.35 33.16L113.53 31.84V28.36C113.53 25.66 113.35 22.3 110.71 22.3C110.17 22.3 106.45 22.84 104.53 23.32L103.87 29.74H99.1899C98.8899 26.56 98.7099 23.56 98.6499 20.38C103.39 19.42 112.27 17.86 112.93 17.86C120.61 17.86 122.53 23.2 122.53 29.8V47.02L125.53 47.62C125.77 48.1 125.83 48.58 125.83 49C125.83 49.6 125.71 50.14 125.53 50.56H115.99L114.13 47.62C109.69 49.48 105.25 51.16 104.47 51.16C100.03 51.16 96.0699 48.28 96.0699 42.28C96.0699 37.84 98.6499 34 104.35 33.16ZM107.77 46.3C108.31 46.3 110.59 45.88 113.53 44.68V36.04L108.25 37C106.15 37.36 104.83 39.16 104.83 41.98C104.83 44.8 105.91 46.3 107.77 46.3Z" fill="#272E00"/>
<path d="M146.11 6.22001C146.11 5.74001 146.17 5.20001 146.29 4.72001C149.71 4.48001 155.71 4.06001 159.19 3.76001C158.83 6.16001 158.71 8.56001 158.71 10.96V47.02L162.01 47.62C162.25 48.1 162.31 48.58 162.31 49C162.31 49.6 162.19 50.14 162.01 50.56H152.47L151.09 48.52C148.33 49.54 143.71 51.16 142.99 51.16C133.93 51.16 128.65 44.38 128.65 34.96C128.65 24.28 136.21 17.86 144.73 17.86C145.45 17.86 147.85 18.34 149.71 18.76V8.32001L146.29 7.72001C146.17 7.18001 146.11 6.70001 146.11 6.22001ZM144.31 21.46C140.47 21.52 138.25 26.8 138.25 34.9C138.25 40.18 139.63 47.2 144.07 47.2C144.43 47.2 147.19 46.66 149.71 45.88V22.54C147.31 21.76 144.97 21.46 144.31 21.46Z" fill="#272E00"/>
<path d="M165.97 47.62L169.33 46.84V22.06L165.91 21.46C165.79 20.92 165.73 20.44 165.73 19.96C165.73 19.48 165.79 18.94 165.91 18.46C169.33 18.34 174.85 18.1 178.81 17.86C178.63 20.56 178.51 24.1 178.27 26.74H178.51C181.63 20.92 183.97 17.86 189.67 17.86C189.91 19 190.03 20.26 190.03 21.52C190.03 23.44 189.79 25.18 189.43 26.92C184.81 26.92 181.51 27.88 178.33 29.5V46.78L183.73 47.62C183.97 48.1 184.03 48.58 184.03 49C184.03 49.6 183.91 50.14 183.73 50.56H165.97C165.79 50.14 165.73 49.6 165.73 49.06C165.73 48.46 165.85 47.86 165.97 47.62Z" fill="#272E00"/>
<path d="M208.33 17.86C218.89 17.86 224.17 26.14 224.17 34.48C224.17 42.82 218.89 51.16 208.33 51.16C197.77 51.16 192.49 42.88 192.49 34.54C192.49 26.2 197.77 17.86 208.33 17.86ZM208.33 47.8C212.47 47.8 214.63 41.08 214.63 34.36C214.63 27.64 212.53 21.22 208.33 21.22C204.13 21.22 202.09 27.7 202.09 34.3C202.09 40.9 204.19 47.8 208.33 47.8Z" fill="#272E00"/>
<path d="M226.71 18.46C230.13 18.34 236.13 18.1 239.61 17.86C239.25 20.26 239.13 22.66 239.13 25.06V40.72C239.13 42.94 239.73 45.7 242.61 45.7C243.03 45.7 246.33 44.8 249.03 44.08V22.06L245.61 21.46C245.49 20.92 245.43 20.44 245.43 19.96C245.43 19.48 245.49 18.94 245.61 18.46C249.03 18.28 254.85 18.04 258.51 17.86C258.15 20.26 258.03 22.66 258.03 25.06V46.84L261.33 47.62C261.57 48.1 261.63 48.58 261.63 49C261.63 49.6 261.51 50.14 261.33 50.56H251.61L249.69 47.5C245.91 48.94 240.21 51.16 239.31 51.16C232.29 51.16 230.13 47.38 230.13 41.86V22.06L226.71 21.46C226.59 20.92 226.53 20.44 226.53 19.96C226.53 19.48 226.59 18.94 226.71 18.46Z" fill="#272E00"/>
<path d="M265.71 47.62L269.07 46.84V22.06L265.65 21.46C265.53 20.92 265.47 20.44 265.47 19.96C265.47 19.48 265.53 18.94 265.65 18.46C269.07 18.34 275.07 18.1 278.61 17.86C278.25 20.26 278.07 22.66 278.07 25.9V46.84L281.25 47.62C281.49 47.98 281.55 48.46 281.55 49C281.55 49.48 281.49 50.02 281.25 50.56H265.71C265.53 50.14 265.47 49.6 265.47 49.06C265.47 48.58 265.53 48.1 265.71 47.62ZM268.23 10.3C268.23 7.48002 270.51 5.14001 273.33 5.14001C276.15 5.14001 278.43 7.48002 278.43 10.3C278.43 13.12 276.15 15.4 273.33 15.4C270.51 15.4 268.23 13.06 268.23 10.3Z" fill="#272E00"/>
<path d="M297.87 3.76001C297.51 6.16001 297.39 8.56001 297.39 10.96V46.84L300.57 47.62C300.81 48.1 300.87 48.58 300.87 49C300.87 49.6 300.75 50.14 300.57 50.56H285.03C284.85 50.14 284.79 49.6 284.79 49.06C284.79 48.46 284.91 47.86 285.03 47.62L288.39 46.9V8.32001L284.97 7.72001C284.85 7.18001 284.79 6.70001 284.79 6.22001C284.79 5.74001 284.85 5.20001 284.97 4.72001C288.39 4.48001 294.39 4.06001 297.87 3.76001Z" fill="#272E00"/>
<path d="M317.19 3.76001C316.83 6.16001 316.71 8.56001 316.71 10.96V46.84L319.89 47.62C320.13 48.1 320.19 48.58 320.19 49C320.19 49.6 320.07 50.14 319.89 50.56H304.35C304.17 50.14 304.11 49.6 304.11 49.06C304.11 48.46 304.23 47.86 304.35 47.62L307.71 46.9V8.32001L304.29 7.72001C304.17 7.18001 304.11 6.70001 304.11 6.22001C304.11 5.74001 304.17 5.20001 304.29 4.72001C307.71 4.48001 313.71 4.06001 317.19 3.76001Z" fill="#272E00"/>
<path d="M339.09 17.86C347.49 17.86 352.53 24.7 352.53 34.96L332.91 36.16C333.45 42.82 336.03 46.78 341.49 46.78C344.67 46.78 347.61 46 350.61 44.08C351.33 44.8 352.11 45.88 352.23 47.26C349.05 49.66 344.43 51.16 340.11 51.16C330.09 51.16 323.31 45.1 323.31 34.72C323.31 24.34 329.61 17.86 339.09 17.86ZM343.59 31.24C343.23 25.36 341.49 21.22 338.37 21.22C335.25 21.22 333.21 24.76 332.91 31.9L343.59 31.24Z" fill="#272E00"/>
<path d="M5.07 3.76001H31.68V13.9H5.07L0 8.83001L5.07 3.76001Z" fill="#272E00"/>
<path d="M33.52 46.77C34.07 42.01 35.45 37.12 38.68 34.16C34.86 35.26 31.52 38.1 28.65 41.49C28.41 36.82 28.49 32.39 29.32 29.73C25.94 32.45 23.89 37.4 22.63 42.49C19.92 38.46 15.62 34.76 8.98003 32.69C13.27 36.78 15.12 41.82 15.83 46.43C13.11 43.31 9.57003 40.6 5.09003 39.65C8.32003 41.63 10.05 46.22 10.99 50.55H38.26C38.89 46.34 40.11 41.85 42.47 39.65C38.49 40.84 35.62 43.62 33.54 46.77H33.52Z" fill="#272E00"/>
<path d="M28.32 15.3H19.32V17.07H28.32V15.3Z" fill="#272E00"/>
<path d="M28.8 0C26.31 0.22 19.32 0.72 19.32 0.72V2.36H28.53C28.6 1.57 28.69 0.79 28.8 0Z" fill="#272E00"/>
<path d="M42.45 18.46H28.32H19.32H15.84V28.6H19.32H28.32H28.49L32.01 25.78L31.13 28.6H42.45L47.52 23.53L42.45 18.46Z" fill="#272E00"/>
<path d="M22.03 39.41C23.3 35.34 24.98 32.2 27.02 29.99H19.33V36.71C20.3 37.54 21.21 38.44 22.04 39.4L22.03 39.41Z" fill="#272E00"/>
</svg>
