<svg width="0" height="0" style="position:absolute"><symbol viewBox="0 0 24 24" fill="none" id="chevron-down" xmlns="http://www.w3.org/2000/svg"><path d="M0 8.527c.008-.392.169-.762.455-1.037l2.763-2.686a1.533 1.533 0 0 1 2.133-.003L12 11.265l6.645-6.461a1.532 1.532 0 0 1 2.133-.003l2.8 2.723a1.481 1.481 0 0 1-.034 2.108L13.068 19.818c-.6.577-1.536.578-2.133.002L.426 9.602A1.488 1.488 0 0 1 0 8.561v-.034Zm19.735-2.648c-.012-.012-.033-.011-.047.003l-7.165 6.967a.747.747 0 0 1-1.046 0l-7.168-6.97c-.012-.011-.033-.011-.047.003L1.506 8.561l10.472 10.182c.012.012.032.011.047-.003l10.47-10.18-2.76-2.681Z" fill="currentColor"/></symbol><symbol viewBox="0 0 24 24" fill="none" id="chevron-left" xmlns="http://www.w3.org/2000/svg"><path d="M15.473 0c.392.008.762.169 1.037.455l2.686 2.763c.577.6.577 1.536.003 2.133L12.735 12l6.461 6.645c.578.6.578 1.536.003 2.133l-2.723 2.8a1.481 1.481 0 0 1-2.108-.034L4.182 13.068a1.532 1.532 0 0 1-.002-2.133L14.398.426A1.488 1.488 0 0 1 15.473 0Zm2.648 19.735c.012-.012.011-.033-.003-.047l-6.967-7.165a.747.747 0 0 1 0-1.046l6.97-7.168c.011-.012.011-.033-.003-.047l-2.679-2.756L5.257 11.978c-.012.012-.011.032.003.047l10.18 10.47 2.681-2.76Z" fill="currentColor"/></symbol><symbol viewBox="0 0 24 24" fill="none" id="chevron-right" xmlns="http://www.w3.org/2000/svg"><path d="M8.527 24a1.474 1.474 0 0 1-1.037-.455l-2.686-2.763a1.533 1.533 0 0 1-.003-2.133L11.265 12 4.804 5.355a1.532 1.532 0 0 1-.003-2.133l2.723-2.8a1.481 1.481 0 0 1 2.108.034l10.186 10.476c.577.6.578 1.536.002 2.133L9.602 23.574A1.488 1.488 0 0 1 8.561 24h-.034ZM5.879 4.265c-.012.012-.011.033.003.047l6.967 7.165a.747.747 0 0 1 0 1.046l-6.97 7.168c-.011.012-.011.033.003.047l2.679 2.756 10.182-10.472c.012-.012.011-.032-.003-.047L8.56 1.505l-2.681 2.76Z" fill="currentColor"/></symbol><symbol viewBox="0 0 24 24" fill="none" id="climb" xmlns="http://www.w3.org/2000/svg"><path fill="currentColor" d="M11.843 6c-1.654 0-3-1.346-3-3s1.346-3 3-3 3 1.346 3 3-1.346 3-3 3Zm0-4.5c-.827 0-1.5.673-1.5 1.5s.673 1.5 1.5 1.5 1.5-.673 1.5-1.5-.673-1.5-1.5-1.5ZM3.149 13.814a1.25 1.25 0 0 1-.396-.065l-1.897-.632a1.24 1.24 0 0 1-.723-.627 1.241 1.241 0 0 1-.068-.954l2.264-6.79c.105-.317.328-.574.627-.723a1.241 1.241 0 0 1 .953-.068l1.897.632c.317.106.574.328.723.627.149.299.173.638.068.954l-2.264 6.791a1.24 1.24 0 0 1-.627.723 1.26 1.26 0 0 1-.557.132Zm-.159-1.567 2.105-6.316-1.423-.474-2.105 6.316 1.423.474ZM20.843 6.75a.743.743 0 0 1-.53-.22.743.743 0 0 1-.22-.53c0-.2.078-.389.22-.53l1.339-1.339.706-3.527a.751.751 0 0 1 1.36-.27.743.743 0 0 1 .111.563l-.75 3.75a.752.752 0 0 1-.205.384l-1.5 1.5a.75.75 0 0 1-.531.219Zm-2.25 10.5a.75.75 0 0 1-.75-.75V15a.75.75 0 0 1 1.5 0v1.5a.75.75 0 0 1-.75.75Z"/><path fill="currentColor" d="M8.837 24.034c-.119 0-.242-.011-.375-.034H3.593a.75.75 0 0 1 0-1.5h3.113a2.233 2.233 0 0 1-.065-1.208l.545-2.724a.758.758 0 0 0-.067-.486l-1.038-2.076a2.233 2.233 0 0 1-.121-1.719l2.25-6.749A2.238 2.238 0 0 1 10.346 6c.35 0 .688.08 1.003.237l3.867 1.934a.747.747 0 0 0 .335.079h3.042a2.252 2.252 0 0 1 2.25 2.25 2.252 2.252 0 0 1-2.25 2.25h-3.045c-.808 0-1.617-.19-2.341-.55l-1.55-.774-.576 1.727 1.025.146a5.264 5.264 0 0 1 3.951 2.849l.8 1.594.023.047c.537 1.095.075 2.445-1.039 2.991a2.273 2.273 0 0 1-.511.177l-.773 1.543h8.536a.75.75 0 0 1 0 1.5H9.214a2.164 2.164 0 0 1-.377.034ZM12.88 22.5l.886-1.769a2.227 2.227 0 0 1-.936-.979l-.797-1.588a.752.752 0 0 0-.378-.356 5.217 5.217 0 0 1-.056 1.639l-.549 2.744a2.21 2.21 0 0 1-.08.309h1.91Zm-3.834 0a.744.744 0 0 0 .523-.552l.558-2.79c.13-.672.072-1.37-.168-2.015a.75.75 0 0 1 .812-1.003l.91.131a2.25 2.25 0 0 1 1.694 1.221l.8 1.593c.117.238.35.395.615.418a.87.87 0 0 1 .141.004.75.75 0 0 0 .595-1.074l-.809-1.612a3.761 3.761 0 0 0-2.823-2.036l-1.913-.272a.75.75 0 0 1-.606-.98l1.134-3.4a.753.753 0 0 1 .711-.513c.116 0 .232.027.335.079l2.321 1.16a3.782 3.782 0 0 0 1.672.392h3.045a.75.75 0 0 0 0-1.5h-3.042c-.347 0-.694-.082-1.005-.237L10.678 7.58a.736.736 0 0 0-.573-.04.742.742 0 0 0-.473.473l-2.25 6.75a.746.746 0 0 0 .04.573l1.038 2.076c.223.445.292.96.196 1.448l-.549 2.743a.75.75 0 0 0 .512.897h.427Z"/></symbol><symbol viewBox="0 0 24 24" fill="none" id="clock" xmlns="http://www.w3.org/2000/svg"><path fill="currentColor" d="M12 23.25C5.797 23.25.75 18.203.75 12S5.797.75 12 .75 23.25 5.797 23.25 12 18.203 23.25 12 23.25Zm0-21c-5.376 0-9.75 4.374-9.75 9.75s4.374 9.75 9.75 9.75 9.75-4.374 9.75-9.75S17.376 2.25 12 2.25Z"/><path fill="currentColor" d="M15.75 16.5a.743.743 0 0 1-.53-.22l-2.25-2.25A2.252 2.252 0 0 1 9.751 12c0-.96.615-1.808 1.5-2.121V5.25a.75.75 0 0 1 1.5 0v4.629a2.26 2.26 0 0 1 1.5 2.121c0 .338-.075.668-.22.969l2.25 2.25a.752.752 0 0 1-.531 1.281ZM12 11.25a.75.75 0 1 0 0 1.5.75.75 0 0 0 0-1.5Z"/></symbol><symbol viewBox="0 0 24 24" fill="none" id="distance" xmlns="http://www.w3.org/2000/svg"><path fill="currentColor" d="M19.499 12.454a1.119 1.119 0 0 1-.937-.505C17.232 9.946 15 6.313 15 4.5 15 2.019 17.019 0 19.5 0S24 2.019 24 4.5c0 1.806-2.232 5.443-3.562 7.45a1.118 1.118 0 0 1-.939.504ZM19.5 1.5c-1.654 0-3 1.346-3 3 0 .938 1.167 3.32 3 6.145 1.833-2.829 3-5.211 3-6.145 0-1.654-1.346-3-3-3Z"/><path fill="currentColor" d="M19.5 5.625a.817.817 0 0 1-.131-.011 1.125 1.125 0 0 1-.982-.983.698.698 0 0 1 0-.26c.06-.513.47-.923.982-.983a.717.717 0 0 1 .262 0c.513.06.922.47.983.983a.796.796 0 0 1 0 .26c-.061.513-.47.923-.983.983a.817.817 0 0 1-.131.011Zm-14.25 8.25a.796.796 0 0 1-.13-.011 1.126 1.126 0 0 1-.983-.982.717.717 0 0 1 0-.262c.06-.513.47-.922.982-.982a.717.717 0 0 1 .262 0c.513.061.922.47.982.982a.717.717 0 0 1 0 .262c-.06.513-.47.922-.983.982a.796.796 0 0 1-.13.011Z"/><path fill="currentColor" d="M5.249 20.926a1.489 1.489 0 0 1-1.182-.577C2.212 17.975 0 14.73 0 12.75A5.256 5.256 0 0 1 5.25 7.5a5.256 5.256 0 0 1 5.25 5.25c0 1.983-2.212 5.227-4.068 7.6a1.491 1.491 0 0 1-1.183.576ZM5.25 9a3.754 3.754 0 0 0-3.75 3.75c0 1.159 1.437 3.717 3.75 6.676C7.563 16.469 9 13.911 9 12.75A3.754 3.754 0 0 0 5.25 9Zm1.5 15a.75.75 0 0 1-.408-1.38l12.75-8.25a.753.753 0 0 1 1.037.223.75.75 0 0 1-.223 1.037l-12.75 8.25a.75.75 0 0 1-.406.12Z"/></symbol><symbol viewBox="0 0 24 24" xml:space="preserve" id="download" xmlns="http://www.w3.org/2000/svg"><path d="M12.001 16.5a.755.755 0 0 1-.26-.047l-.022-.008a.732.732 0 0 1-.249-.165l-4.499-4.5c-.142-.141-.22-.33-.22-.53s.078-.389.22-.53c.141-.142.33-.22.53-.22s.389.078.53.22l3.22 3.22V3.75a.75.75 0 0 1 1.5 0v10.189l3.22-3.22a.744.744 0 0 1 1.06 0c.142.141.22.33.22.53s-.078.389-.22.53l-4.5 4.5a.763.763 0 0 1-.246.164l-.026.01a.726.726 0 0 1-.258.047z" fill="currentColor"/><path d="M3.751 21a3.754 3.754 0 0 1-3.75-3.75v-1.5a.75.75 0 0 1 1.5 0v1.5a2.252 2.252 0 0 0 2.25 2.25h16.5a2.252 2.252 0 0 0 2.25-2.25v-1.5a.75.75 0 0 1 1.5 0v1.5a3.754 3.754 0 0 1-3.75 3.75h-16.5z" fill="currentColor"/></symbol><symbol viewBox="0 0 24 24" fill="none" id="forest" xmlns="http://www.w3.org/2000/svg"><path d="M16.478 24.004a.752.752 0 0 1-.624-.333A12.747 12.747 0 0 0 5.237 18c-1.426 0-2.834.238-4.186.708a.752.752 0 0 1-.955-.462.752.752 0 0 1 .462-.955 14.21 14.21 0 0 1 5.441-.77V13.5H2.25a1.507 1.507 0 0 1-.743-.198 1.493 1.493 0 0 1-.703-.907 1.492 1.492 0 0 1 .183-1.199l2.07-2.946H2.25a.751.751 0 0 1-.642-1.138L5.484.696a1.496 1.496 0 0 1 1.56-.667c.393.079.732.306.954.639l3.894 6.445c.14.231.144.521.012.756a.753.753 0 0 1-.654.381h-.806l2.071 2.947a1.506 1.506 0 0 1 .235.803c0 .827-.673 1.5-1.5 1.5H7.5v3.184c1.142.183 2.257.505 3.323.958a16.43 16.43 0 0 1 7.178-3.712v-2.68h-3.136c-.239 0-.473-.062-.679-.181a1.354 1.354 0 0 1-.637-.826 1.356 1.356 0 0 1 .175-1.1l1.723-2.393h-.377a.75.75 0 0 1-.633-1.154L17.609.619a1.37 1.37 0 0 1 1.409-.594c.358.071.666.277.868.58l3.18 4.991a.75.75 0 0 1-.632 1.153h-.378l1.722 2.394a1.377 1.377 0 0 1 .221.747 1.355 1.355 0 0 1-.401.963 1.355 1.355 0 0 1-.962.397h-3.135v2.404a16.539 16.539 0 0 1 3.82-.081c.199.019.38.114.507.269a.742.742 0 0 1 .168.549.756.756 0 0 1-.82.675 14.552 14.552 0 0 0-1.363-.067h-.082a15.062 15.062 0 0 0-2.873.275 14.891 14.891 0 0 0-6.572 3.088 14.301 14.301 0 0 1 4.815 4.473.75.75 0 0 1-.623 1.169ZM11.246 12 8.387 7.931a.746.746 0 0 1-.052-.777A.746.746 0 0 1 9 6.75h.921L6.75 1.501 3.579 6.75H4.5a.75.75 0 0 1 .614 1.181L2.255 12h8.991Zm5.664-6.75a.75.75 0 0 1 .609 1.188L15.135 9.75l7.23-.001-2.382-3.312a.748.748 0 0 1 .608-1.188h.474l-2.314-3.633-2.315 3.634h.474Z" fill="currentColor"/></symbol><symbol viewBox="0 0 24 24" fill="none" id="location" xmlns="http://www.w3.org/2000/svg"><path d="M12 21a.748.748 0 0 1-.621-.33 25.212 25.212 0 0 0-2.294-2.906 63.55 63.55 0 0 0-.83-.865C6.143 14.722 3.75 12.256 3.75 8.25 3.75 3.701 7.451 0 12 0c4.549 0 8.25 3.701 8.25 8.25 0 4.002-2.39 6.467-4.499 8.641-.291.3-.568.586-.835.871a25.429 25.429 0 0 0-2.296 2.908.745.745 0 0 1-.62.33Zm0-19.5a6.758 6.758 0 0 0-6.75 6.75c0 3.398 2.075 5.536 4.081 7.604.291.3.578.596.854.89.642.7 1.251 1.44 1.816 2.206a26.898 26.898 0 0 1 1.815-2.207c.278-.297.562-.59.85-.887 2.012-2.075 4.084-4.212 4.084-7.606A6.758 6.758 0 0 0 12 1.5ZM19.5 24a.74.74 0 0 1-.279-.054l-3.75-1.5a.745.745 0 0 1-.411-.401.748.748 0 0 1 .968-.991l3.75 1.5a.745.745 0 0 1 .411.401.742.742 0 0 1 .007.574.745.745 0 0 1-.696.471ZM6.375 18.75a.74.74 0 0 1-.279-.054l-1.875-.75a.747.747 0 0 1-.418-.975.747.747 0 0 1 .976-.417l1.875.75a.747.747 0 0 1 .418.975.747.747 0 0 1-.697.471ZM4.5 24a.747.747 0 0 1-.697-.472.747.747 0 0 1 .418-.975l3.75-1.5a.744.744 0 0 1 .975.419.748.748 0 0 1-.418.974l-3.75 1.5A.732.732 0 0 1 4.5 24Zm13.125-5.25a.744.744 0 0 1-.696-.472.747.747 0 0 1 .418-.975l1.875-.75a.745.745 0 0 1 .974.418.747.747 0 0 1-.418.975l-1.875.75a.732.732 0 0 1-.278.054Z" fill="currentColor"/><path d="M12 12a3.754 3.754 0 0 1-3.75-3.75A3.754 3.754 0 0 1 12 4.5a3.754 3.754 0 0 1 3.75 3.75A3.754 3.754 0 0 1 12 12Zm0-6a2.252 2.252 0 0 0-2.25 2.25A2.252 2.252 0 0 0 12 10.5a2.252 2.252 0 0 0 2.25-2.25A2.252 2.252 0 0 0 12 6Z" fill="currentColor"/></symbol><symbol viewBox="0 0 24 24" fill="none" id="peak" xmlns="http://www.w3.org/2000/svg"><path d="M.751 23.979a.752.752 0 0 1-.655-1.115l3.75-6.75a.747.747 0 0 1 .663-.386c.23 0 .452.112.593.3l1.521 2.027 5.494-8.727.039-.056c.162-.211.365-.387.595-.519V.729a.75.75 0 0 1 .75-.75h7.193c.493.002.942.292 1.147.737.208.436.148.949-.156 1.334l-1.028 1.304 1.033 1.307c.303.385.362.899.153 1.342-.202.44-.651.727-1.141.729h-6.45V8.55a2.004 2.004 0 0 1 1.133.777l8.502 13.503a.749.749 0 0 1-.635 1.15L.751 23.979Zm21.141-1.5-3.268-5.189-1.69 1.42c-.312.264-.712.41-1.127.41-.47 0-.91-.181-1.239-.51l-.643-.644a.248.248 0 0 0-.176-.072.249.249 0 0 0-.177.073l-.641.642a1.74 1.74 0 0 1-1.239.51c-.415 0-.816-.146-1.129-.412l-1.687-1.418-3.268 5.189 16.284.001Zm-18.055 0 1.929-3.064-1.171-1.561-2.569 4.625h1.811Zm7.694-4.919a.25.25 0 0 0 .34-.012l.641-.642c.331-.33.77-.512 1.238-.512.468 0 .907.182 1.237.511l.643.644a.248.248 0 0 0 .177.071.25.25 0 0 0 .161-.058l1.85-1.554-3.679-5.843a.499.499 0 0 0-.471-.168.494.494 0 0 0-.306.168l-3.679 5.843 1.848 1.552Zm8.698-12.328-.857-1.085a1.281 1.281 0 0 1-.002-1.584l.855-1.084h-5.974v3.753h5.978Z" fill="currentColor"/></symbol><symbol viewBox="0 0 24 24" fill="none" id="tipi" xmlns="http://www.w3.org/2000/svg"><path d="M.75 24a.75.75 0 0 1-.641-1.139l11.014-18.14-2.175-3.582A.75.75 0 0 1 10.23.361L12 3.276 13.77.361a.744.744 0 0 1 1.029-.252.75.75 0 0 1 .252 1.03l-2.175 3.582 11.014 18.14A.75.75 0 0 1 23.25 24H.75Zm21.167-1.5L12 6.166 2.083 22.5h5.458l3.804-6.846a.75.75 0 0 1 1.312 0l3.804 6.846h5.456Zm-7.174 0L12 17.563 9.257 22.5h5.486Z" fill="currentColor"/>/</symbol><symbol viewBox="0 0 24 24" fill="none" id="tower" xmlns="http://www.w3.org/2000/svg"><path d="M.75 24a.75.75 0 0 1 0-1.5h2.321l1.35-13.502A1.502 1.502 0 0 1 3 7.5v-6C3 .673 3.673 0 4.5 0h2.25c.827 0 1.5.673 1.5 1.5v.75a.75.75 0 0 0 1.5 0V1.5c0-.827.673-1.5 1.5-1.5h1.5c.827 0 1.5.673 1.5 1.5v.75a.75.75 0 0 0 1.5 0V1.5c0-.827.673-1.5 1.5-1.5h2.25c.827 0 1.5.673 1.5 1.5v6c0 .801-.631 1.457-1.422 1.498l1.35 13.502h2.321a.75.75 0 0 1 .001 1.5H.75Zm18.671-1.5L18.071 9H5.929l-1.35 13.5H9V18c0-1.654 1.346-3 3-3s3 1.346 3 3v4.5h4.421Zm-5.921 0V18c0-.827-.673-1.5-1.5-1.5s-1.5.673-1.5 1.5v4.5h3Zm-9-15h15v-6h-2.25v.75A2.252 2.252 0 0 1 15 4.5a2.252 2.252 0 0 1-2.25-2.25V1.5h-1.5v.75A2.252 2.252 0 0 1 9 4.5a2.252 2.252 0 0 1-2.25-2.25V1.5H4.5v6Z" fill="currentColor"/></symbol><symbol viewBox="0 0 24 24" fill="none" id="tree" xmlns="http://www.w3.org/2000/svg"><path d="M12.217 23.75a.75.75 0 0 1-.75-.75v-2.25H5.5c-.335 0-.663-.113-.925-.318a1.49 1.49 0 0 1-.564-.998c-.049-.398.06-.79.306-1.105L7.685 14a1.516 1.516 0 0 1-.867-.299 1.487 1.487 0 0 1-.584-.988 1.485 1.485 0 0 1 .285-1.112l2.7-3.6h-.1a1.481 1.481 0 0 1-.835-.252 1.493 1.493 0 0 1-.639-.954c-.079-.393 0-.793.223-1.126l3.1-4.648a1.492 1.492 0 0 1 1.247-.667c.504 0 .971.249 1.25.667l3.1 4.649a1.502 1.502 0 0 1-1.248 2.332h-.1l2.7 3.6a1.503 1.503 0 0 1-1.167 2.4l3.367 4.33a1.503 1.503 0 0 1-.125 1.984 1.491 1.491 0 0 1-1.057.437h-5.968V23a.75.75 0 0 1-.75.75ZM9.218 12.5c.284 0 .549.165.674.42a.754.754 0 0 1-.082.79L5.5 19.25l13.435-.001-4.31-5.539a.754.754 0 0 1-.082-.79.756.756 0 0 1 .674-.42h1.5l-3.6-4.8a.748.748 0 0 1 .6-1.2h1.6l-3.1-4.648-3.101 4.649h1.602c.286 0 .543.159.671.414a.746.746 0 0 1-.071.786l-3.6 4.8h1.5V12.5Z" fill="currentColor"/></symbol></svg>